/* XPM */
static char * 0006_xpm[] = {
"20 20 249 2",
"  	c None",
". 	c #E5665F",
"+ 	c #E7625A",
"@ 	c #ED5D51",
"# 	c #E46F68",
"$ 	c #E6584D",
"% 	c #F36055",
"& 	c #F45548",
"* 	c #FB4F3F",
"= 	c #F55244",
"- 	c #F1584D",
"; 	c #F45042",
"> 	c #EC5447",
", 	c #EF5549",
"' 	c #F46359",
") 	c #F95548",
"! 	c #FC4939",
"~ 	c #F94736",
"{ 	c #F14637",
"] 	c #E2473C",
"^ 	c #D23D32",
"/ 	c #E5473A",
"( 	c #F3493B",
"_ 	c #FB4838",
": 	c #FD4B3A",
"< 	c #F55346",
"[ 	c #E85E55",
"} 	c #EA4133",
"| 	c #DA3B2E",
"1 	c #CF372A",
"2 	c #C43429",
"3 	c #BE3226",
"4 	c #C8362A",
"5 	c #D53A2C",
"6 	c #E33E2F",
"7 	c #F14334",
"8 	c #F6493B",
"9 	c #C75853",
"0 	c #CF473E",
"a 	c #CA3629",
"b 	c #AC2B20",
"c 	c #97231A",
"d 	c #912017",
"e 	c #901F17",
"f 	c #932119",
"g 	c #9F261C",
"h 	c #BC3124",
"i 	c #D63A2D",
"j 	c #E44B3F",
"k 	c #E3564E",
"l 	c #F0564C",
"m 	c #ED4D41",
"n 	c #E54639",
"o 	c #D1483E",
"p 	c #C2382D",
"q 	c #841A12",
"r 	c #A4281D",
"s 	c #B22D22",
"t 	c #B32D22",
"u 	c #AE2B20",
"v 	c #8E1E16",
"w 	c #8D1E15",
"x 	c #B42E22",
"y 	c #D43B2E",
"z 	c #E04A40",
"A 	c #EF493C",
"B 	c #F05044",
"C 	c #E3564D",
"D 	c #EA4D41",
"E 	c #F04333",
"F 	c #E63F31",
"G 	c #D0372A",
"H 	c #AA291E",
"I 	c #7F1711",
"J 	c #7F1812",
"K 	c #C43327",
"L 	c #C63327",
"M 	c #9D271E",
"N 	c #711713",
"O 	c #942119",
"P 	c #C03225",
"Q 	c #DD3C2E",
"R 	c #ED4233",
"S 	c #EF4536",
"T 	c #E7534A",
"U 	c #E94B3F",
"V 	c #EC4537",
"W 	c #EC4132",
"X 	c #DF3D2E",
"Y 	c #9B2219",
"Z 	c #75130F",
"` 	c #C33428",
" .	c #D3382B",
"..	c #D2382B",
"+.	c #D2372A",
"@.	c #D1382B",
"#.	c #76201E",
"$.	c #821913",
"%.	c #B42C21",
"&.	c #D6392C",
"*.	c #E73F30",
"=.	c #EE4334",
"-.	c #E2534A",
";.	c #DB4D43",
">.	c #E2493D",
",.	c #E64234",
"'.	c #DC3C2E",
").	c #C03024",
"!.	c #96221B",
"~.	c #7D2A27",
"{.	c #DC3A2D",
"].	c #DC3B2C",
"^.	c #DC3B2D",
"/.	c #891812",
"(.	c #B12A1F",
"_.	c #D03629",
":.	c #E23E2F",
"<.	c #E64133",
"[.	c #D74A40",
"}.	c #E66B65",
"|.	c #E4493E",
"1.	c #DE3D2F",
"2.	c #CA3428",
"3.	c #A52A23",
"4.	c #E43D2F",
"5.	c #E33D2E",
"6.	c #E43E2F",
"7.	c #93221D",
"8.	c #C02E23",
"9.	c #D8392B",
"0.	c #E33F30",
"a.	c #DE4135",
"b.	c #E23E30",
"c.	c #DA382B",
"d.	c #C43127",
"e.	c #E03E31",
"f.	c #EB3F31",
"g.	c #EB3F30",
"h.	c #EB4031",
"i.	c #C22B22",
"j.	c #D33527",
"k.	c #E13D2E",
"l.	c #E44437",
"m.	c #E15148",
"n.	c #DC4C43",
"o.	c #E74133",
"p.	c #EA3D2F",
"q.	c #EA3A2D",
"r.	c #F04133",
"s.	c #F14232",
"t.	c #F14233",
"u.	c #EE4234",
"v.	c #EF4334",
"w.	c #F24233",
"x.	c #F24232",
"y.	c #EE392C",
"z.	c #EA3C2D",
"A.	c #E93F30",
"B.	c #DC483E",
"C.	c #C65049",
"D.	c #CD493F",
"E.	c #DD3E31",
"F.	c #EB4032",
"G.	c #F54233",
"H.	c #F94233",
"I.	c #F94334",
"J.	c #F84334",
"K.	c #F84434",
"L.	c #F94434",
"M.	c #FA4334",
"N.	c #F74232",
"O.	c #F04132",
"P.	c #E43F30",
"Q.	c #D03C30",
"R.	c #C0453D",
"S.	c #AD3C35",
"T.	c #CE392C",
"U.	c #E63F30",
"V.	c #F44333",
"W.	c #FD4636",
"X.	c #FE4636",
"Y.	c #FA4535",
"Z.	c #FC4535",
"`.	c #FC4536",
" +	c #ED4132",
".+	c #BA3C33",
"++	c #A75551",
"@+	c #9C3F3B",
"#+	c #B6362D",
"$+	c #D73A2C",
"%+	c #ED4131",
"&+	c #F84636",
"*+	c #FF4938",
"=+	c #FD4838",
"-+	c #F34838",
";+	c #F64D3C",
">+	c #F64D3D",
",+	c #F74B3B",
"'+	c #F64637",
")+	c #F24333",
"!+	c #E13D2F",
"~+	c #C43629",
"{+	c #A83A32",
"]+	c #973A35",
"^+	c #C15853",
"/+	c #DB4D44",
"(+	c #F04535",
"_+	c #FB4A39",
":+	c #FD4D3C",
"<+	c #FE4F3E",
"[+	c #FE503E",
"}+	c #FE4E3D",
"|+	c #FD4C3A",
"1+	c #F64837",
"2+	c #EA4233",
"3+	c #DF3F32",
"4+	c #D6473E",
"5+	c #B8514C",
"6+	c #DB4B41",
"7+	c #EB4132",
"8+	c #F54535",
"9+	c #FD4A3A",
"0+	c #F84736",
"a+	c #F14333",
"b+	c #DE3E30",
"c+	c #D2534C",
"d+	c #AC443E",
"e+	c #BB3429",
"f+	c #E43F31",
"g+	c #E94436",
"h+	c #EB4739",
"i+	c #E74235",
"j+	c #DB3B2E",
"k+	c #C53428",
"l+	c #AD3128",
"m+	c #A4504C",
"n+	c #7F4441",
"o+	c #803733",
"p+	c #91342E",
"q+	c #A0352E",
"r+	c #C0453C",
"s+	c #CC4B43",
"t+	c #BE4E48",
"u+	c #9C3B35",
"v+	c #8D3935",
"w+	c #783430",
"x+	c #714240",
"y+	c #825C5B",
"z+	c #774340",
"            . + @       # $             ",
"          % & * =       - ; > ,         ",
"        ' ) ! ~ { ] ^ / ( _ : <         ",
"          [ } | 1 2 3 4 5 6 7 8         ",
"        9 0 a b c d e f g h i j k       ",
"  l m n o p g q r s t u v w x y z A B   ",
"C D E F G H I J K L L L M N O P Q R S T ",
"U V W X L Y Z `  ...+. .@.#.$.%.&.*.=.-.",
";.>.,.'.).!.~.{.].^.^.{.{.  /.(._.:.<.[.",
"  }.|.1.2.3.  4.4.4.5.6.4.4.7.8.9.0.|.  ",
"    a.b.c.d.e.f.f.g.  h.f.f.i.j.k.l.m.  ",
"    n.o.p.q.r.s.t.u.v.t.w.x.y.z.A.<.B.  ",
"C.D.E.F.G.H.I.I.J.K.J.J.L.L.M.N.O.P.Q.R.",
"  S.T.U.V.W.X.X.Y.    Z.`.X.X.Y. +| .+++",
"  @+#+$+%+&+*+=+-+;+>+,+'+*+=+)+!+~+{+  ",
"    ]+^+/+<.(+_+:+<+[+}+|+1+2+3+4+5+    ",
"          6+7+8+_ 9+: ! 0+a+b+c+        ",
"          d+e+ .f+g+h+i+j+k+l+m+        ",
"          n+o+p+q+r+s+t+u+v+w+          ",
"              x+y+      z+              "};
