/* XPM */
static char * 0008_xpm[] = {
"30 30 377 2",
"  	c None",
". 	c #C56F6B",
"+ 	c #E76056",
"@ 	c #F95344",
"# 	c #EC5E53",
"$ 	c #DE6B64",
"% 	c #F55548",
"& 	c #D35146",
"* 	c #936D6B",
"= 	c #F47D77",
"- 	c #F35E52",
"; 	c #FE4E3C",
"> 	c #FF4D3C",
", 	c #FF4C3B",
"' 	c #FC4D3C",
") 	c #E06C66",
"! 	c #E9635B",
"~ 	c #F84D3D",
"{ 	c #F0574A",
"] 	c #F16961",
"^ 	c #FC4939",
"/ 	c #F94636",
"( 	c #F84535",
"_ 	c #F85145",
": 	c #E36C66",
"< 	c #F6584E",
"[ 	c #F74A3C",
"} 	c #FA4737",
"| 	c #FD4A39",
"1 	c #EC5246",
"2 	c #F1574C",
"3 	c #F74535",
"4 	c #F04233",
"5 	c #E23E2F",
"6 	c #DC3B2D",
"7 	c #D43A2E",
"8 	c #CA382B",
"9 	c #D33B2E",
"0 	c #DD3D2F",
"a 	c #E53F30",
"b 	c #F34334",
"c 	c #F84636",
"d 	c #FC4938",
"e 	c #EF6158",
"f 	c #E5665F",
"g 	c #EB4131",
"h 	c #D93B2D",
"i 	c #D0382B",
"j 	c #CD372A",
"k 	c #C33327",
"l 	c #BA3024",
"m 	c #B62E23",
"n 	c #BD3125",
"o 	c #C53427",
"p 	c #CF382B",
"q 	c #D1382B",
"r 	c #DD3C2E",
"s 	c #EF4233",
"t 	c #F54434",
"u 	c #937A79",
"v 	c #DA473C",
"w 	c #D3392B",
"x 	c #C73528",
"y 	c #AE2C21",
"z 	c #932218",
"A 	c #871D15",
"B 	c #861C14",
"C 	c #871B14",
"D 	c #8A1E16",
"E 	c #98241A",
"F 	c #B52E23",
"G 	c #D4392B",
"H 	c #E84031",
"I 	c #E95E56",
"J 	c #F5716B",
"K 	c #E95F58",
"L 	c #C0544E",
"M 	c #9B251B",
"N 	c #8A1D15",
"O 	c #962219",
"P 	c #A2271C",
"Q 	c #A2261C",
"R 	c #8F1F16",
"S 	c #8F1F17",
"T 	c #A1271D",
"U 	c #C63428",
"V 	c #E13F32",
"W 	c #DB706B",
"X 	c #DF5C55",
"Y 	c #E95147",
"Z 	c #FB4636",
"` 	c #ED4638",
" .	c #E44335",
"..	c #D14D45",
"+.	c #D73C2F",
"@.	c #9D251B",
"#.	c #7E170F",
"$.	c #660603",
"%.	c #A3271D",
"&.	c #B72E23",
"*.	c #B92F23",
"=.	c #B92F24",
"-.	c #B82F23",
";.	c #B52E22",
">.	c #8E1E16",
",.	c #670804",
"'.	c #8A1D14",
").	c #9F261C",
"!.	c #D83A2D",
"~.	c #E44336",
"{.	c #E04F45",
"].	c #F64D40",
"^.	c #F74536",
"/.	c #E16D67",
"(.	c #D56C67",
"_.	c #EB4A3E",
":.	c #F14333",
"<.	c #EE4232",
"[.	c #E73F30",
"}.	c #C43327",
"|.	c #AB2A1F",
"1.	c #76110B",
"2.	c #6A0806",
"3.	c #C53326",
"4.	c #C53327",
"5.	c #661716",
"6.	c #680E0C",
"7.	c #891B13",
"8.	c #AF2B20",
"9.	c #CE372A",
"0.	c #D93A2D",
"a.	c #EC4132",
"b.	c #E9493E",
"c.	c #DC5F58",
"d.	c #DE3C2E",
"e.	c #D2382B",
"f.	c #B32C21",
"g.	c #8C1C13",
"h.	c #6D100D",
"i.	c #CD3529",
"j.	c #CD3629",
"k.	c #CE3629",
"l.	c #593030",
"m.	c #6E0D09",
"n.	c #9E241A",
"o.	c #B82E23",
"p.	c #ED4132",
"q.	c #EC4538",
"r.	c #C88987",
"s.	c #E74C42",
"t.	c #F24333",
"u.	c #E73F31",
"v.	c #CA3528",
"w.	c #B52C21",
"x.	c #7D120B",
"y.	c #6C1514",
"z.	c #D4382B",
"A.	c #D5382B",
"B.	c #D5392B",
"C.	c #6C1615",
"D.	c #8A1911",
"E.	c #BF3024",
"F.	c #EB4132",
"G.	c #D25D57",
"H.	c #D64B41",
"I.	c #E53E2F",
"J.	c #EA4031",
"K.	c #DA3B2D",
"L.	c #C43226",
"M.	c #A6251B",
"N.	c #762220",
"O.	c #DB3A2C",
"P.	c #DA3A2C",
"Q.	c #DB3A2D",
"R.	c #DA3A2D",
"S.	c #8B1710",
"T.	c #B42B20",
"U.	c #C83427",
"V.	c #E63F30",
"W.	c #E94031",
"X.	c #C7473E",
"Y.	c #E67671",
"Z.	c #E74C41",
"`.	c #E33E2F",
" +	c #DE3C2D",
".+	c #D03629",
"++	c #AD261C",
"@+	c #602E2D",
"#+	c #E03C2E",
"$+	c #E13C2E",
"%+	c #891D18",
"&+	c #BD2D22",
"*+	c #D3372A",
"=+	c #E13E2F",
"-+	c #E43F30",
";+	c #E74031",
">+	c #E34F45",
",+	c #E4625B",
"'+	c #D5372A",
")+	c #B2271D",
"!+	c #613434",
"~+	c #E53D2F",
"{+	c #E63E2F",
"]+	c #E53E30",
"^+	c #8E1E19",
"/+	c #C22E23",
"(+	c #D8382B",
"_+	c #E03D2E",
":+	c #E43E30",
"<+	c #E45148",
"[+	c #E23F30",
"}+	c #E23D2E",
"|+	c #DC392C",
"1+	c #C92F23",
"2+	c #7A3836",
"3+	c #E93F30",
"4+	c #EA3F30",
"5+	c #EC3F30",
"6+	c #B32921",
"7+	c #D23427",
"8+	c #E03B2D",
"9+	c #E43E2F",
"0+	c #D95750",
"a+	c #A85854",
"b+	c #E43F31",
"c+	c #E83F30",
"d+	c #E53D2E",
"e+	c #DB3528",
"f+	c #BB302A",
"g+	c #EE4031",
"h+	c #EF4132",
"i+	c #EA4032",
"j+	c #CF2E24",
"k+	c #E0392B",
"l+	c #E73D2F",
"m+	c #E83F31",
"n+	c #DE6059",
"o+	c #C75B56",
"p+	c #EE3C2E",
"q+	c #F0382C",
"r+	c #F24233",
"s+	c #F34233",
"t+	c #EF4334",
"u+	c #F04234",
"v+	c #F14233",
"w+	c #F63A2C",
"x+	c #ED3E2F",
"y+	c #EB3F30",
"z+	c #DE463A",
"A+	c #CA5D57",
"B+	c #D8453A",
"C+	c #E03D2F",
"D+	c #F64333",
"E+	c #F94132",
"F+	c #F94233",
"G+	c #F84434",
"H+	c #F74334",
"I+	c #F74434",
"J+	c #F84334",
"K+	c #FB4132",
"L+	c #F74233",
"M+	c #CC3E33",
"N+	c #B9544E",
"O+	c #8C4643",
"P+	c #B42F24",
"Q+	c #D4392C",
"R+	c #F94334",
"S+	c #FC4535",
"T+	c #FA4434",
"U+	c #FA4435",
"V+	c #F94435",
"W+	c #FB4535",
"X+	c #FC4435",
"Y+	c #F84333",
"Z+	c #EF4232",
"`+	c #EB4031",
" @	c #DC3C2E",
".@	c #C93629",
"+@	c #A4423C",
"@@	c #9F3932",
"#@	c #C63528",
"$@	c #FE4636",
"%@	c #FF4636",
"&@	c #FF4737",
"*@	c #FD4636",
"=@	c #FE4736",
"-@	c #E33E30",
";@	c #BB3125",
">@	c #92504E",
",@	c #8E514E",
"'@	c #B83125",
")@	c #F64434",
"!@	c #FF4938",
"~@	c #FF4838",
"{@	c #D3392D",
"]@	c #DF4336",
"^@	c #F34536",
"/@	c #FE4838",
"(@	c #A8362F",
"_@	c #83251E",
":@	c #B12E23",
"<@	c #E23D2F",
"[@	c #F54536",
"}@	c #FF4A3A",
"|@	c #FB4939",
"1@	c #FC4D3B",
"2@	c #FC4E3D",
"3@	c #FA4E3D",
"4@	c #F14D3D",
"5@	c #FD4E3C",
"6@	c #F74939",
"7@	c #FE4A39",
"8@	c #EE4233",
"9@	c #DB3B2D",
"0@	c #CC4137",
"a@	c #A42A1F",
"b@	c #723835",
"c@	c #53302F",
"d@	c #915553",
"e@	c #BE8785",
"f@	c #CF5C55",
"g@	c #DE4539",
"h@	c #E14031",
"i@	c #F44837",
"j@	c #FE4C3B",
"k@	c #FF4F3D",
"l@	c #FF503E",
"m@	c #FF4F3E",
"n@	c #FF4E3D",
"o@	c #FF4D3B",
"p@	c #FD4B3A",
"q@	c #EE4535",
"r@	c #E13E30",
"s@	c #D24C44",
"t@	c #CB908E",
"u@	c #C36B67",
"v@	c #DC4338",
"w@	c #FA4637",
"x@	c #FE4B3B",
"y@	c #F74435",
"z@	c #D63A2C",
"A@	c #CF6B66",
"B@	c #CA4B44",
"C@	c #D3392C",
"D@	c #E13D2F",
"E@	c #F94535",
"F@	c #F94635",
"G@	c #DB3B2E",
"H@	c #D2392B",
"I@	c #C1423A",
"J@	c #914A47",
"K@	c #AA2C21",
"L@	c #C43428",
"M@	c #CE372B",
"N@	c #9F291E",
"O@	c #882F2A",
"P@	c #805958",
"Q@	c #70322F",
"R@	c #7D1D15",
"S@	c #9A271D",
"T@	c #AB2C21",
"U@	c #B9342A",
"V@	c #D1605A",
"W@	c #C1615D",
"X@	c #CA5E59",
"Y@	c #C45751",
"Z@	c #A72A1F",
"`@	c #8D231A",
" #	c #77241E",
".#	c #6D3D3B",
"+#	c #645757",
"@#	c #584A4A",
"##	c #694341",
"$#	c #774F4E",
"%#	c #7C4340",
"&#	c #744D4C",
"*#	c #654443",
"                                                            ",
"                  . + @ #           $ % & *                 ",
"              = - ; > , ' )         ! , > ~ {               ",
"              ] , , ^ / ( _ :     < [ } | , , 1             ",
"                2 ( 3 4 5 6 7 8 9 0 a b 3 c d e             ",
"                f g h i j k l m n o p q r s t }             ",
"              u v w x y z A B C B D E F j G H I             ",
"    J K       L w n M N O P Q Q Q Q R S T U w V W     X     ",
"    Y Z `  ...+.F @.#.$.%.&.*.=.-.;.>.,.'.).k !.~.{.].^./.  ",
"  (._.:.<.[.!.}.|.1.2.  3.}.4.}.4.4.  5.6.7.8.9.0.a.s :.b.  ",
"  c.4 s a.d.e.f.g.h.    i.j.k.j.j.j.    l.m.n.o.h 5 p.:.q.r.",
"  s.t.p.u.r v.w.x.y.    z.A.B.A.B.z.z.    C.D.E.e.r F.s s G.",
"  H.I.J.5 K.L.M.N.    O.P.Q.Q.  Q.R.P.      S.T.U.d.V.W.5 X.",
"    Y.Z.`. +.+++@+    #+#+$+$+  $+#+#+$+    %+&+*+=+-+;+>+  ",
"      ,+`.6 '+)+!+    ~+I.{+    {+I.I.]+    ^+/+(+_+:+<+    ",
"        [+}+|+1+2+  3+3+4+4+    5+4+4+3+    6+7+8+9+a 0+    ",
"      a+b+c+d+e+f+  g+g+h+i+      h+h+g+g+  j+k+l+m+V.n+    ",
"      o+[.c+5+p+q+  r+s+s+4 t+u+v+s+s+s+s+  w+x+y+m+a z+    ",
"  A+B+C+V.p.D+E+F+G+H+I+G+H+J+J+G+H+I+J+J+H+K+L+s+a.5 K.M+N+",
"  O+P+Q+C+p.s+R+S+S+S+S+S+T+U+U+V+W+S+S+S+S+X+Y+Z+`+ @.@+@  ",
"    @@#@ @W.v+$@%@&@$@%@*@          *@%@&@=@%@W+Z+-@h ;@>@  ",
"    ,@'@Q+r r+)@!@!@~@~@{@        ]@^@~@~@!@/@s+a.h .@(@    ",
"      _@:@B.<@V.[@}@}@|@1@2@3@4@2@5@6@}@}@7@8@[.9@0@a@b@    ",
"      c@d@e@f@g@5 h@i@j@> k@l@l@m@n@o@p@q@r@`.+.s@t@        ",
"              u@v@t.( w@| j@> > > x@d / y@g z@A@            ",
"                B@C@D@v+( E@E@F@E@E@y@F.G@H@I@              ",
"                J@K@L@i z@ @5 a C+K.C@M@;@N@O@              ",
"                P@Q@R@S@T@U@V@W@X@Y@Z@`@ #.#+#              ",
"                    @###$#%#        &#*#                    ",
"                                                            "};
